<svg width="34" height="34" viewBox="0 0 34 34" fill="none" xmlns="http://www.w3.org/2000/svg">
<path d="M28.2271 2.94897H6.22705C4.71455 2.94897 3.4908 4.18647 3.4908 5.69897L3.47705 30.449L8.97705 24.949H28.2271C29.7396 24.949 30.9771 23.7115 30.9771 22.199V5.69897C30.9771 4.18647 29.7396 2.94897 28.2271 2.94897ZM28.2271 22.199H7.8358L7.02455 23.0102L6.22705 23.8077V5.69897H28.2271V22.199ZM15.1646 19.449H25.4771V16.699H17.9146L15.1646 19.449ZM20.4721 11.3777C20.7471 11.1027 20.7471 10.6765 20.4721 10.4015L18.0383 7.96773C17.7633 7.69273 17.3371 7.69273 17.0621 7.96773L8.97705 16.0527V19.449H12.3733L20.4721 11.3777Z" fill="#352F2F"/>
</svg>
