<svg width="32" height="33" viewBox="0 0 32 33" fill="none" xmlns="http://www.w3.org/2000/svg">
<g clip-path="url(#clip0)">
<path d="M4 0.198975C2.93913 0.198975 1.92172 0.620402 1.17157 1.37055C0.421427 2.12069 0 3.13811 0 4.19897L0 29.785C4.20298e-05 29.9828 0.0587852 30.1763 0.168795 30.3407C0.278804 30.5052 0.435134 30.6333 0.617999 30.7089C0.800863 30.7845 1.00204 30.8041 1.19607 30.7654C1.3901 30.7266 1.56826 30.6311 1.708 30.491L7.414 24.785C7.78899 24.4099 8.29761 24.1991 8.828 24.199H28C29.0609 24.199 30.0783 23.7775 30.8284 23.0274C31.5786 22.2773 32 21.2598 32 20.199V4.19897C32 3.13811 31.5786 2.12069 30.8284 1.37055C30.0783 0.620402 29.0609 0.198975 28 0.198975L4 0.198975Z" fill="#9A9797" fill-opacity="0.37"/>
</g>
<defs>
<clipPath id="clip0">
<rect width="32" height="32" fill="white" transform="translate(0 0.198975)"/>
</clipPath>
</defs>
</svg>
