<svg width="24" height="24" viewBox="0 0 24 24" fill="none" xmlns="http://www.w3.org/2000/svg">
<g clip-path="url(#clip0)">
<path d="M19.9 3.33209H4.1C3.01375 3.33209 2.125 4.21147 2.125 5.28626V20.519C2.125 21.3886 3.1915 21.8283 3.81363 21.2127L6.075 18.9654H19.9C20.9863 18.9654 21.875 18.0861 21.875 17.0113V5.28626C21.875 4.21147 20.9863 3.33209 19.9 3.33209ZM13.5504 12.6828L12.4444 15.0669C12.4051 15.1522 12.3419 15.2245 12.2622 15.2752C12.1825 15.3259 12.0898 15.3529 11.9951 15.3529C11.9003 15.3529 11.8076 15.3259 11.7279 15.2752C11.6483 15.2245 11.585 15.1522 11.5458 15.0669L10.4398 12.6828L8.03025 11.5885C7.94405 11.5496 7.87096 11.487 7.81971 11.4082C7.76846 11.3294 7.74121 11.2376 7.74121 11.1439C7.74121 11.0502 7.76846 10.9584 7.81971 10.8796C7.87096 10.8007 7.94405 10.7382 8.03025 10.6993L10.4398 9.60497L11.5458 7.22089C11.585 7.13559 11.6483 7.06328 11.7279 7.01257C11.8076 6.96186 11.9003 6.9349 11.9951 6.9349C12.0898 6.9349 12.1825 6.96186 12.2622 7.01257C12.3419 7.06328 12.4051 7.13559 12.4444 7.22089L13.5504 9.60497L15.9599 10.6993C16.0461 10.7382 16.1192 10.8007 16.1704 10.8796C16.2217 10.9584 16.2489 11.0502 16.2489 11.1439C16.2489 11.2376 16.2217 11.3294 16.1704 11.4082C16.1192 11.487 16.0461 11.5496 15.9599 11.5885L13.5504 12.6828V12.6828Z" fill="white"/>
</g>
<defs>
<clipPath id="clip0">
<rect width="20" height="19" fill="white" transform="translate(2 2.5)"/>
</clipPath>
</defs>
</svg>
