<svg width="22" height="22" viewBox="0 0 17 13" fill="none" xmlns="http://www.w3.org/2000/svg">
    <g clip-path="url(#clip0)">
        <path
            d="M13.3197 2.40411H4.29117C3.67045 2.40411 3.1626 2.90661 3.1626 3.52078V12.2252C3.1626 12.7221 3.77203 12.9734 4.12753 12.6216L5.41974 11.3375H13.3197C13.9405 11.3375 14.4483 10.835 14.4483 10.2208V3.52078C14.4483 2.90661 13.9405 2.40411 13.3197 2.40411ZM9.69138 7.74737L9.05938 9.1097C9.03694 9.15844 9.0008 9.19977 8.95528 9.22874C8.90975 9.25772 8.85676 9.27313 8.80263 9.27313C8.7485 9.27313 8.69551 9.25772 8.64999 9.22874C8.60447 9.19977 8.56833 9.15844 8.54588 9.1097L7.91388 7.74737L6.53703 7.12204C6.48777 7.09983 6.446 7.06407 6.41672 7.01903C6.38743 6.97398 6.37186 6.92155 6.37186 6.86799C6.37186 6.81443 6.38743 6.762 6.41672 6.71696C6.446 6.67192 6.48777 6.63616 6.53703 6.61395L7.91388 5.98862L8.54588 4.62628C8.56833 4.57754 8.60447 4.53622 8.64999 4.50724C8.69551 4.47827 8.7485 4.46286 8.80263 4.46286C8.85676 4.46286 8.90975 4.47827 8.95528 4.50724C9.0008 4.53622 9.03694 4.57754 9.05938 4.62628L9.69138 5.98862L11.0682 6.61395C11.1175 6.63616 11.1593 6.67192 11.1885 6.71696C11.2178 6.762 11.2334 6.81443 11.2334 6.86799C11.2334 6.92155 11.2178 6.97398 11.1885 7.01903C11.1593 7.06407 11.1175 7.09983 11.0682 7.12204L9.69138 7.74737Z"
            fill="#403C3C" fill-opacity="0.63" />
    </g>
    <defs>
        <clipPath id="clip0">
            <rect width="16" height="12.5714" fill="white" transform="translate(0.80542 0.214355)" />
        </clipPath>
    </defs>
</svg>