<svg width="18" height="18" viewBox="0 0 14 14" fill="none" xmlns="http://www.w3.org/2000/svg">
    <path
        d="M12.1032 8.4009C12.0357 7.9318 11.6735 7.56608 11.2072 7.45707C9.39478 7.03227 8.94044 5.98856 8.86378 4.83092C8.54237 4.77114 7.97058 4.70644 7.00002 4.70644C6.02946 4.70644 5.45767 4.77114 5.13626 4.83092C5.0596 5.98856 4.60527 7.03227 2.79285 7.45707C2.32656 7.56678 1.96435 7.9318 1.89684 8.4009L1.54729 10.8217C1.42422 11.6741 2.05016 12.4428 2.92085 12.4428H11.0792C11.9492 12.4428 12.5758 11.6741 12.4528 10.8217L12.1032 8.4009ZM7.00002 10.6789C6.01891 10.6789 5.22347 9.89121 5.22347 8.92064C5.22347 7.95008 6.01891 7.16238 7.00002 7.16238C7.98113 7.16238 8.77657 7.95008 8.77657 8.92064C8.77657 9.89121 7.98043 10.6789 7.00002 10.6789ZM13.9979 4.00313C13.981 2.94817 11.2958 1.19061 7.00002 1.18991C2.70353 1.19061 0.0183082 2.94817 0.00213213 4.00313C-0.0140439 5.05809 0.0169016 6.43094 1.78501 6.20237C3.85343 5.93441 3.72613 5.21211 3.72613 4.17966C3.72613 3.45948 5.40844 3.28576 7.00002 3.28576C8.5916 3.28576 10.2732 3.45948 10.2739 4.17966C10.2739 5.21211 10.1466 5.93441 12.215 6.20237C13.9824 6.43094 14.0141 5.05809 13.9979 4.00313Z"
        fill="#403C3C" fill-opacity="0.63" />
</svg>