<svg width="24" height="24" viewBox="0 0 24 24" fill="none" xmlns="http://www.w3.org/2000/svg">
<g clip-path="url(#clip0)">
<path d="M19.526 15.8831C19.4264 15.1913 18.8922 14.652 18.2046 14.4912C15.5317 13.8647 14.8617 12.3255 14.7486 10.6183C14.2746 10.5301 13.4314 10.4347 12 10.4347C10.5687 10.4347 9.72546 10.5301 9.25146 10.6183C9.13841 12.3255 8.46838 13.8647 5.79551 14.4912C5.10785 14.653 4.57369 15.1913 4.47412 15.8831L3.95863 19.4532C3.77712 20.7103 4.70023 21.8439 5.98428 21.8439H18.0158C19.2988 21.8439 20.223 20.7103 20.0415 19.4532L19.526 15.8831ZM12 19.2426C10.5531 19.2426 9.38007 18.081 9.38007 16.6496C9.38007 15.2183 10.5531 14.0566 12 14.0566C13.4469 14.0566 14.62 15.2183 14.62 16.6496C14.62 18.081 13.4459 19.2426 12 19.2426ZM22.3202 9.39752C22.2953 7.84172 18.3353 5.24976 12 5.24872C5.66379 5.24976 1.70376 7.84172 1.6799 9.39752C1.65605 10.9533 1.70168 12.9779 4.3092 12.6408C7.35961 12.2457 7.17188 11.1805 7.17188 9.65786C7.17188 8.59576 9.65286 8.33957 12 8.33957C14.3472 8.33957 16.8272 8.59576 16.8282 9.65786C16.8282 11.1805 16.6405 12.2457 19.6909 12.6408C22.2974 12.9779 22.344 10.9533 22.3202 9.39752Z" fill="white"/>
</g>
<defs>
<clipPath id="clip0">
<rect width="20.6466" height="19.1718" fill="white" transform="translate(1.67676 2.41412)"/>
</clipPath>
</defs>
</svg>
