<svg width="24" height="24" viewBox="0 0 24 24" fill="none" xmlns="http://www.w3.org/2000/svg">
<path d="M17.8993 8.06734C17.8993 4.81305 15.2546 2.16833 12.0003 2.16833C8.74605 2.16833 6.10133 4.81305 6.10133 8.06734C6.10133 12.4916 12.0003 18.8822 12.0003 18.8822C12.0003 18.8822 17.8993 12.4916 17.8993 8.06734ZM10.034 8.06734C10.034 6.98585 10.9188 6.101 12.0003 6.101C13.0818 6.101 13.9667 6.98585 13.9667 8.06734C13.9667 8.58884 13.7595 9.08898 13.3907 9.45774C13.022 9.8265 12.5218 10.0337 12.0003 10.0337C11.4788 10.0337 10.9787 9.8265 10.6099 9.45774C10.2412 9.08898 10.034 8.58884 10.034 8.06734ZM5.11816 19.8653V21.8317H18.8825V19.8653H5.11816Z" fill="white"/>
</svg>
