<svg width="22" height="22" viewBox="0 0 16 17" fill="none" xmlns="http://www.w3.org/2000/svg">
    <path
        d="M11.9999 5.5416C11.9999 3.33493 10.2066 1.5416 7.99992 1.5416C5.79325 1.5416 3.99992 3.33493 3.99992 5.5416C3.99992 8.5416 7.99992 12.8749 7.99992 12.8749C7.99992 12.8749 11.9999 8.5416 11.9999 5.5416ZM6.66659 5.5416C6.66659 4.80826 7.26659 4.20826 7.99992 4.20826C8.73325 4.20826 9.33325 4.80826 9.33325 5.5416C9.33325 5.89522 9.19278 6.23436 8.94273 6.4844C8.69268 6.73445 8.35354 6.87493 7.99992 6.87493C7.6463 6.87493 7.30716 6.73445 7.05711 6.4844C6.80706 6.23436 6.66659 5.89522 6.66659 5.5416ZM3.33325 13.5416V14.8749H12.6666V13.5416H3.33325Z"
        fill="#403C3C" fill-opacity="0.63" />
</svg>