<svg width="22" height="22" viewBox="0 0 16 17" fill="none" xmlns="http://www.w3.org/2000/svg">
    <path
        d="M14.6315 6.61977C14.5896 6.49635 14.5125 6.3879 14.4096 6.30781C14.3068 6.22772 14.1828 6.1795 14.0528 6.1691L10.2522 5.8671L8.60751 2.22644C8.55514 2.10918 8.46994 2.00958 8.36221 1.93968C8.25448 1.86977 8.12882 1.83253 8.0004 1.83246C7.87197 1.83239 7.74627 1.86949 7.63846 1.93928C7.53066 2.00907 7.44535 2.10857 7.39285 2.22577L5.74818 5.8671L1.94751 6.1691C1.81982 6.17922 1.69774 6.22591 1.59588 6.30359C1.49403 6.38127 1.41671 6.48665 1.37318 6.60712C1.32964 6.7276 1.32174 6.85806 1.35041 6.98291C1.37908 7.10775 1.44311 7.2217 1.53485 7.3111L4.34351 10.0491L3.35018 14.3504C3.32002 14.4806 3.32969 14.6169 3.37793 14.7415C3.42617 14.8662 3.51076 14.9734 3.62072 15.0494C3.73067 15.1254 3.86093 15.1665 3.99457 15.1675C4.12821 15.1686 4.25908 15.1294 4.37018 15.0551L8.00018 12.6351L11.6302 15.0551C11.7437 15.1305 11.8777 15.1693 12.0139 15.1663C12.1502 15.1633 12.2823 15.1187 12.3924 15.0384C12.5026 14.9581 12.5855 14.846 12.63 14.7172C12.6746 14.5883 12.6786 14.4489 12.6415 14.3178L11.4222 10.0511L14.4462 7.32977C14.6442 7.1511 14.7168 6.87244 14.6315 6.61977Z"
        fill="#FFCD6D" />
</svg>