<svg width="24" height="24" viewBox="0 0 24 24" fill="none" xmlns="http://www.w3.org/2000/svg">
<path d="M21.7797 9.22714C21.7179 9.04512 21.6042 8.88519 21.4525 8.76708C21.3009 8.64897 21.1179 8.57786 20.9263 8.56252L15.3213 8.11715L12.8958 2.74807C12.8186 2.57515 12.6929 2.42827 12.5341 2.32517C12.3752 2.22207 12.1899 2.16716 12.0005 2.16705C11.8111 2.16695 11.6257 2.22166 11.4667 2.32459C11.3077 2.42751 11.1819 2.57425 11.1045 2.74709L8.67901 8.11715L3.07398 8.56252C2.88566 8.57744 2.70562 8.6463 2.55541 8.76086C2.4052 8.87542 2.29118 9.03082 2.22697 9.20849C2.16277 9.38616 2.15112 9.57856 2.1934 9.76268C2.23568 9.94679 2.33012 10.1148 2.4654 10.2467L6.60748 14.2846L5.14256 20.6279C5.09808 20.82 5.11234 21.0209 5.18348 21.2047C5.25463 21.3885 5.37937 21.5467 5.54153 21.6587C5.7037 21.7708 5.89579 21.8315 6.09288 21.833C6.28997 21.8345 6.48296 21.7767 6.64681 21.6672L12.0002 18.0983L17.3535 21.6672C17.521 21.7783 17.7185 21.8356 17.9194 21.8312C18.1204 21.8268 18.3152 21.7609 18.4776 21.6425C18.6401 21.5241 18.7623 21.3587 18.828 21.1688C18.8937 20.9788 18.8996 20.7732 18.845 20.5798L17.0467 14.2875L21.5064 10.2742C21.7984 10.0107 21.9056 9.59976 21.7797 9.22714V9.22714Z" fill="#FFCD6D"/>
</svg>
