<svg width="26" height="24" viewBox="0 0 26 24" fill="none" xmlns="http://www.w3.org/2000/svg">
<rect width="26" height="24" rx="4" fill="#E0E3E1"/>
<path d="M15.0982 12.0009C15.0982 10.8887 14.1571 9.98706 12.9962 9.98706C11.8353 9.98706 10.8942 10.8887 10.8942 12.0009C10.8942 13.1131 11.8353 14.0147 12.9962 14.0147C14.1571 14.0147 15.0982 13.1131 15.0982 12.0009ZM13 16.1939C11.798 16.1886 10.5522 15.896 9.37279 15.3357C8.49711 14.9027 7.64372 14.2916 6.90293 13.5374C6.53909 13.1524 6.07503 12.595 6 12.0002C6.00887 11.485 6.56152 10.8491 6.90293 10.463C7.5976 9.7384 8.42877 9.14443 9.37279 8.66422C10.4726 8.13046 11.69 7.82315 13 7.80606C14.2031 7.81147 15.4487 8.10745 16.6268 8.66422C17.5024 9.09731 18.3563 9.70878 19.0971 10.463C19.4609 10.848 19.925 11.4054 20 12.0002C19.9911 12.5154 19.4385 13.1514 19.0971 13.5375C18.4024 14.262 17.5708 14.8555 16.6268 15.3358C15.5275 15.8691 14.3072 16.1743 13 16.1939ZM12.9991 15.1527C14.8205 15.1527 16.297 13.7411 16.297 11.9998C16.297 10.2584 14.8205 8.84684 12.9991 8.84684C11.1777 8.84684 9.70124 10.2584 9.70124 11.9998C9.70124 13.7411 11.1777 15.1527 12.9991 15.1527Z" fill="#868383"/>
</svg>
