<svg width="69" height="69" viewBox="0 0 69 69" fill="none" xmlns="http://www.w3.org/2000/svg">
<g clip-path="url(#clip0)">
<path d="M68.0566 59.6607L54.6205 46.2246C54.0141 45.6182 53.192 45.2812 52.3295 45.2812H50.1328C53.8523 40.524 56.0625 34.5404 56.0625 28.0312C56.0625 12.5467 43.5158 0 28.0312 0C12.5467 0 0 12.5467 0 28.0312C0 43.5158 12.5467 56.0625 28.0312 56.0625C34.5404 56.0625 40.524 53.8523 45.2812 50.1328V52.3295C45.2812 53.192 45.6182 54.0141 46.2246 54.6205L59.6607 68.0566C60.9275 69.3234 62.976 69.3234 64.2293 68.0566L68.0432 64.2428C69.31 62.976 69.31 60.9275 68.0566 59.6607ZM28.0312 45.2812C18.5033 45.2812 10.7812 37.5727 10.7812 28.0312C10.7812 18.5033 18.4898 10.7812 28.0312 10.7812C37.5592 10.7812 45.2812 18.4898 45.2812 28.0312C45.2812 37.5592 37.5727 45.2812 28.0312 45.2812Z" fill="#352F2F" fill-opacity="0.5"/>
</g>
<defs>
<clipPath id="clip0">
<rect width="69" height="69" fill="white"/>
</clipPath>
</defs>
</svg>
